# xmcd
#
# Track frame offsets:
#       182
#       15495
#       34082
#       49520
#       67020
#       85382
#       102670
#       116707
#       130270
#       146207
#       160732
#       174920
#       187595
#
# Disc length: 2720 seconds
#
# Revision: 1
# Processed by: cddbd v1.4PL0 Copyright (c) Steve Scherf et al.
# Submitted via: MusiCat 1.1
#
DISCID=ab0a9e0d
DTITLE=Vari - Cocktail italiano vol. 5
DYEAR=1900
DGENRE=
TTITLE0=A chi-Fausto Leali
TTITLE1=Bella da morire-Homo Sapiens
TTITLE2=Malattia d'amore-Donatello
TTITLE3=Le colline sono in fiore-Wilma Goich
TTITLE4=Proposta-I Giganti
TTITLE5=Tre settimane da ricordare-Fred Bongusto
TTITLE6=Canzone-Don Backy
TTITLE7=Cuore matto-Little Tony
TTITLE8=Ammazzate oh-Luciano Rossi
TTITLE9=Vagabondo-Nicola di Bari
TTITLE10=A Dean Martin-Fabio Concato
TTITLE11=Gli occhi miei-Dino
TTITLE12=Applausi-Camaleonti
EXTD=0\n\n\n
EXTT0=
EXTT1=
EXTT2=
EXTT3=
EXTT4=
EXTT5=
EXTT6=
EXTT7=
EXTT8=
EXTT9=
EXTT10=
EXTT11=
EXTT12=
PLAYORDER=
